# xmcd
#
# Track frame offsets:
#	150
#	19430
#	31060
#	44422
#	74020
#	93932
#	110920
#	128612
#	147205
#	161960
#	176150
#
# Disc length: 2600 seconds
#
# Revision: 1
# Processed by: cddbd v1.5.1PL0 Copyright (c) Steve Scherf et al.
# Submitted via: EasyCDDAExtractor 7.0.6.1
#
DISCID=a10a260b
DTITLE=G. Love and Special Sauce - Best of G. Love
DYEAR=2002
DGENRE=Blues
TTITLE0=Blues Music
TTITLE1=Cold Beverage
TTITLE2=Rodeo Clowns
TTITLE3=This Ain't Living
TTITLE4=Stepping Stones
TTITLE5=I-76
TTITLE6=Baby's Got Sauce
TTITLE7=Sweet Sugar Mama
TTITLE8=Kiss And Tell
TTITLE9=Unified
TTITLE10=Free At Last (Reprise)
EXTD=YEAR: 2002 ID3G: 0
EXTT0=
EXTT1=
EXTT2=
EXTT3=
EXTT4=
EXTT5=
EXTT6=
EXTT7=
EXTT8=
EXTT9=
EXTT10=
PLAYORDER=
